<?xml version="1.0" standalone="no"?>
<!DOCTYPE svg PUBLIC "-//W3C//DTD SVG 20010904//EN"
 "http://www.w3.org/TR/2001/REC-SVG-20010904/DTD/svg10.dtd">
<svg version="1.0" xmlns="http://www.w3.org/2000/svg"
 width="200.000000pt" height="200.000000pt" viewBox="0 0 200.000000 200.000000"
 preserveAspectRatio="xMidYMid meet">
<metadata>
Created by potrace 1.14, written by Peter Selinger 2001-2017
</metadata>
<g transform="translate(0.000000,200.000000) scale(0.100000,-0.100000)"
fill="#000000" stroke="none">
<path d="M147 1304 c-36 -20 -47 -50 -47 -134 0 -126 25 -152 150 -153 143 0
161 27 151 226 -1 10 -14 32 -30 48 -28 27 -34 29 -113 29 -55 -1 -93 -6 -111
-16z m190 -60 c19 -26 15 -139 -6 -157 -20 -17 -145 -17 -163 1 -13 13 -14
151 -1 163 25 23 152 18 170 -7z"/>
<path d="M852 1199 c0 -115 11 -130 92 -126 31 2 58 6 62 10 13 13 20 82 11
108 -9 29 -24 36 -77 35 -51 -1 -48 -29 5 -36 37 -5 39 -7 40 -40 0 -35 0 -35
-45 -35 l-45 0 -3 88 c-2 76 -5 87 -21 87 -16 0 -18 -10 -19 -91z"/>
<path d="M1662 1273 c4 -23 34 -25 35 -2 1 13 -5 19 -18 19 -14 0 -19 -6 -17
-17z"/>
<path d="M431 1261 c-4 -9 -7 -54 -7 -101 1 -72 4 -85 19 -88 19 -4 18 -6 19
96 l0 72 64 0 c61 0 64 -1 64 -24 0 -31 -11 -38 -65 -39 -50 -1 -69 -22 -32
-36 12 -5 36 -22 52 -38 29 -27 75 -42 75 -23 0 5 -12 18 -27 30 -23 18 -25
23 -13 31 37 22 42 28 47 65 7 56 -10 67 -108 69 -65 2 -81 -1 -88 -14z"/>
<path d="M1268 1258 c-14 -14 -18 -34 -18 -88 0 -61 3 -71 23 -84 23 -15 135
-19 157 -6 27 17 -4 30 -71 30 l-69 0 0 65 0 65 74 0 c65 0 74 2 72 17 -4 27
-142 27 -168 1z"/>
<path d="M671 1208 c-25 -26 -22 -103 5 -123 21 -17 119 -14 137 4 6 6 10 34
10 62 0 61 -14 73 -86 75 -36 1 -53 -4 -66 -18z m113 -35 c13 -43 1 -58 -44
-58 -38 0 -43 3 -47 25 -6 40 4 50 46 50 29 0 41 -5 45 -17z"/>
<path d="M1071 1213 c-16 -11 -21 -25 -21 -63 0 -42 4 -52 25 -66 31 -20 114
-13 132 13 18 24 16 98 -3 114 -22 18 -108 20 -133 2z m109 -63 l0 -40 -45 0
-45 0 0 40 0 40 45 0 45 0 0 -40z"/>
<path d="M1487 1216 c-18 -9 -23 -21 -25 -63 -3 -45 0 -54 20 -67 34 -21 105
-19 129 5 23 23 26 86 5 115 -17 22 -92 28 -129 10z m103 -66 l0 -40 -44 0
c-37 0 -44 3 -48 23 -8 46 1 57 48 57 l44 0 0 -40z"/>
<path d="M1660 1150 c0 -72 2 -79 20 -77 18 1 20 8 17 76 -2 62 -5 75 -19 77
-16 2 -18 -7 -18 -76z"/>
<path d="M1743 1223 c-9 -3 -13 -29 -13 -80 0 -66 2 -74 18 -71 13 2 18 15 20
61 l3 57 40 0 c45 0 51 -8 53 -73 1 -31 5 -43 19 -45 15 -3 17 5 17 56 0 75
-18 94 -93 97 -28 1 -58 0 -64 -2z"/>
<path d="M551 980 c-51 -8 -90 -46 -92 -88 -1 -33 -1 -122 0 -140 1 -8 14 -27
30 -43 28 -28 33 -29 121 -29 88 0 93 1 121 29 28 28 29 33 29 121 0 88 -1 93
-29 121 -23 22 -39 29 -69 29 -22 0 -46 2 -54 4 -7 2 -33 0 -57 -4z m139 -66
c17 -17 20 -140 5 -161 -18 -25 -141 -27 -166 -2 -24 24 -21 145 4 163 20 16
142 15 157 0z"/>
<path d="M193 940 c-74 -72 -28 -193 73 -193 69 0 114 46 114 119 0 28 -8 44
-34 70 -28 28 -41 34 -78 34 -36 0 -50 -6 -75 -30z m138 -19 c55 -56 31 -128
-52 -154 -28 -9 -79 21 -93 54 -40 94 73 171 145 100z"/>
<path d="M250 930 c0 -5 -7 -10 -15 -10 -12 0 -15 -13 -15 -60 0 -50 3 -61 21
-70 38 -21 102 21 82 53 -4 6 -6 24 -5 39 2 21 -4 31 -27 43 -35 18 -41 18
-41 5z m40 -45 c0 -8 -9 -15 -20 -15 -11 0 -20 7 -20 15 0 8 9 15 20 15 11 0
20 -7 20 -15z m7 -52 c4 -11 -32 -24 -41 -15 -3 3 -6 11 -6 19 0 15 42 12 47
-4z"/>
</g>
</svg>
